<svg width="0" height="0" class="hidden">
  <symbol xmlns="http://www.w3.org/2000/svg" viewBox="0 0 512 512" id="pause-sharp">
    <path d="M224,432H144V80h80Z"></path>
    <path d="M368,432H288V80h80Z"></path>
  </symbol>
  <symbol xmlns="http://www.w3.org/2000/svg" viewBox="0 0 512 512" id="play">
    <path d="M133,440a35.37,35.37,0,0,1-17.5-4.67c-12-6.8-19.46-20-19.46-34.33V111c0-14.37,7.46-27.53,19.46-34.33a35.13,35.13,0,0,1,35.77.45L399.12,225.48a36,36,0,0,1,0,61L151.23,434.88A35.5,35.5,0,0,1,133,440Z"></path>
  </symbol>
  <symbol xmlns="http://www.w3.org/2000/svg" viewBox="0 0 512 512" id="play-circle-outline">
    <path d="M448,256c0-106-86-192-192-192S64,150,64,256s86,192,192,192S448,362,448,256Z"></path>
    <path d="M216.32,334.44,330.77,265.3a10.89,10.89,0,0,0,0-18.6L216.32,177.56A10.78,10.78,0,0,0,200,186.87V325.13A10.78,10.78,0,0,0,216.32,334.44Z"></path>
  </symbol>
  <symbol xmlns="http://www.w3.org/2000/svg" viewBox="0 0 512 512" id="play-circle">
    <path d="M256,48C141.31,48,48,141.31,48,256s93.31,208,208,208,208-93.31,208-208S370.69,48,256,48Zm74.77,217.3L216.32,334.44A10.78,10.78,0,0,1,200,325.13V186.87a10.78,10.78,0,0,1,16.32-9.31L330.77,246.7A10.89,10.89,0,0,1,330.77,265.3Z"></path>
  </symbol>
  <symbol xmlns="http://www.w3.org/2000/svg" viewBox="0 0 512 512" id="play-outline">
    <path d="M112,111V401c0,17.44,17,28.52,31,20.16l247.9-148.37c12.12-7.25,12.12-26.33,0-33.58L143,90.84C129,82.48,112,93.56,112,111Z"></path>
  </symbol>
  <symbol xmlns="http://www.w3.org/2000/svg" viewBox="0 0 512 512" id="play-sharp">
    <polygon points="96 448 416 256 96 64 96 448"></polygon>
  </symbol>
  <symbol xmlns="http://www.w3.org/2000/svg" viewBox="0 0 512 512" id="play-circle-sharp">
    <path d="M256,48C141.31,48,48,141.31,48,256s93.31,208,208,208,208-93.31,208-208S370.69,48,256,48ZM200,344V168l144,88Z"></path>
  </symbol>
  <symbol xmlns="http://www.w3.org/2000/svg" viewBox="0 0 512 512" id="volume-high">
    <path d="M232,416a23.88,23.88,0,0,1-14.2-4.68,8.27,8.27,0,0,1-.66-.51L125.76,336H56a24,24,0,0,1-24-24V200a24,24,0,0,1,24-24h69.75l91.37-74.81a8.27,8.27,0,0,1,.66-.51A24,24,0,0,1,256,120V392a24,24,0,0,1-24,24ZM125.82,336Zm-.27-159.86Z"></path>
    <path d="M320,336a16,16,0,0,1-14.29-23.19c9.49-18.87,14.3-38,14.3-56.81,0-19.38-4.66-37.94-14.25-56.73a16,16,0,0,1,28.5-14.54C346.19,208.12,352,231.44,352,256c0,23.86-6,47.81-17.7,71.19A16,16,0,0,1,320,336Z"></path>
    <path d="M368,384a16,16,0,0,1-13.86-24C373.05,327.09,384,299.51,384,256c0-44.17-10.93-71.56-29.82-103.94a16,16,0,0,1,27.64-16.12C402.92,172.11,416,204.81,416,256c0,50.43-13.06,83.29-34.13,120A16,16,0,0,1,368,384Z"></path>
    <path d="M416,432a16,16,0,0,1-13.39-24.74C429.85,365.47,448,323.76,448,256c0-66.5-18.18-108.62-45.49-151.39a16,16,0,1,1,27-17.22C459.81,134.89,480,181.74,480,256c0,64.75-14.66,113.63-50.6,168.74A16,16,0,0,1,416,432Z"></path>
  </symbol>
  <symbol xmlns="http://www.w3.org/2000/svg" viewBox="0 0 512 512" id="volume-high-outline">
    <path d="M126,192H56a8,8,0,0,0-8,8V312a8,8,0,0,0,8,8h69.65a15.93,15.93,0,0,1,10.14,3.54l91.47,74.89A8,8,0,0,0,240,392V120a8,8,0,0,0-12.74-6.43l-91.47,74.89A15,15,0,0,1,126,192Z"></path>
    <path d="M320,320c9.74-19.38,16-40.84,16-64,0-23.48-6-44.42-16-64"></path>
    <path d="M368,368c19.48-33.92,32-64.06,32-112s-12-77.74-32-112"></path>
    <path d="M416,416c30-46,48-91.43,48-160S446,143,416,96"></path>
  </symbol>
  <symbol xmlns="http://www.w3.org/2000/svg" viewBox="0 0 512 512" id="volume-high-sharp">
    <path d="M320,320c9.74-19.38,16-40.84,16-64,0-23.48-6-44.42-16-64"></path>
    <path d="M368,368c19.48-33.92,32-64.06,32-112s-12-77.74-32-112"></path>
    <path d="M416,416c30-46,48-91.43,48-160S446,143,416,96"></path>
    <polygon points="125.65 176.1 32 176.1 32 335.9 125.65 335.9 256 440 256 72 125.65 176.1"></polygon>
  </symbol>
  <symbol xmlns="http://www.w3.org/2000/svg" viewBox="0 0 512 512" id="volume-low">
    <path d="M296,416.19a23.92,23.92,0,0,1-14.21-4.69l-.66-.51-91.46-75H120a24,24,0,0,1-24-24V200a24,24,0,0,1,24-24h69.65l91.46-75,.66-.51A24,24,0,0,1,320,119.83V392.17a24,24,0,0,1-24,24Z"></path>
    <path d="M384,336a16,16,0,0,1-14.29-23.18c9.49-18.9,14.3-38,14.3-56.82,0-19.36-4.66-37.92-14.25-56.73a16,16,0,0,1,28.5-14.54C410.2,208.16,416,231.47,416,256c0,23.83-6,47.78-17.7,71.18A16,16,0,0,1,384,336Z"></path>
  </symbol>
  <symbol xmlns="http://www.w3.org/2000/svg" viewBox="0 0 512 512" id="volume-low-outline">
    <path d="M189.65,192H120a8,8,0,0,0-8,8V312a8,8,0,0,0,8,8h69.65a16,16,0,0,1,10.14,3.63l91.47,75A8,8,0,0,0,304,392.17V119.83a8,8,0,0,0-12.74-6.44l-91.47,75A16,16,0,0,1,189.65,192Z"></path>
    <path d="M384,320c9.74-19.41,16-40.81,16-64,0-23.51-6-44.4-16-64"></path>
  </symbol>
  <symbol xmlns="http://www.w3.org/2000/svg" viewBox="0 0 512 512" id="volume-low-sharp">
    <path d="M391.12,341.48l-28.6-14.36,7.18-14.3c9.49-18.9,14.3-38,14.3-56.82,0-19.36-4.66-37.92-14.25-56.73L362.48,185,391,170.48l7.26,14.25C410.2,208.16,416,231.47,416,256c0,23.83-6,47.78-17.7,71.18Z"></path>
    <polygon points="189.65 176.1 96 176.1 96 335.9 189.65 335.9 320 440 320 72 189.65 176.1"></polygon>
  </symbol>
  <symbol xmlns="http://www.w3.org/2000/svg" viewBox="0 0 512 512" id="volume-medium">
    <path d="M264,416.19a23.92,23.92,0,0,1-14.21-4.69l-.66-.51-91.46-75H88a24,24,0,0,1-24-24V200a24,24,0,0,1,24-24h69.65l91.46-75,.66-.51A24,24,0,0,1,288,119.83V392.17a24,24,0,0,1-24,24Z"></path>
    <path d="M352,336a16,16,0,0,1-14.29-23.18c9.49-18.9,14.3-38,14.3-56.82,0-19.36-4.66-37.92-14.25-56.73a16,16,0,0,1,28.5-14.54C378.2,208.16,384,231.47,384,256c0,23.83-6,47.78-17.7,71.18A16,16,0,0,1,352,336Z"></path>
    <path d="M400,384a16,16,0,0,1-13.87-24C405,327.05,416,299.45,416,256c0-44.12-10.94-71.52-29.83-103.95A16,16,0,0,1,413.83,136C434.92,172.16,448,204.88,448,256c0,50.36-13.06,83.24-34.12,120A16,16,0,0,1,400,384Z"></path>
  </symbol>
  <symbol xmlns="http://www.w3.org/2000/svg" viewBox="0 0 512 512" id="volume-medium-outline">
    <path d="M157.65,192H88a8,8,0,0,0-8,8V312a8,8,0,0,0,8,8h69.65a16,16,0,0,1,10.14,3.63l91.47,75A8,8,0,0,0,272,392.17V119.83a8,8,0,0,0-12.74-6.44l-91.47,75A16,16,0,0,1,157.65,192Z"></path>
    <path d="M352,320c9.74-19.41,16-40.81,16-64,0-23.51-6-44.4-16-64"></path>
    <path d="M400,368c19.48-34,32-64,32-112s-12-77.7-32-112"></path>
  </symbol>
  <symbol xmlns="http://www.w3.org/2000/svg" viewBox="0 0 512 512" id="volume-mute">
    <line x1="416" y1="432" x2="64" y2="80"></line>
    <path d="M243.33,98.86a23.89,23.89,0,0,0-25.55,1.82l-.66.51L188.6,124.54a8,8,0,0,0-.59,11.85l54.33,54.33A8,8,0,0,0,256,185.06V120.57A24.51,24.51,0,0,0,243.33,98.86Z"></path>
    <path d="M251.33,335.29,96.69,180.69A16,16,0,0,0,85.38,176H56a24,24,0,0,0-24,24V312a24,24,0,0,0,24,24h69.76l92,75.31A23.9,23.9,0,0,0,243.63,413,24.51,24.51,0,0,0,256,391.45V346.59A16,16,0,0,0,251.33,335.29Z"></path>
    <path d="M352,256c0-24.56-5.81-47.87-17.75-71.27a16,16,0,1,0-28.5,14.55C315.34,218.06,320,236.62,320,256q0,4-.31,8.13a8,8,0,0,0,2.32,6.25l14.36,14.36a8,8,0,0,0,13.55-4.31A146,146,0,0,0,352,256Z"></path>
    <path d="M416,256c0-51.18-13.08-83.89-34.18-120.06a16,16,0,0,0-27.64,16.12C373.07,184.44,384,211.83,384,256c0,23.83-3.29,42.88-9.37,60.65a8,8,0,0,0,1.9,8.26L389,337.4a8,8,0,0,0,13.13-2.79C411,311.76,416,287.26,416,256Z"></path>
    <path d="M480,256c0-74.25-20.19-121.11-50.51-168.61a16,16,0,1,0-27,17.22C429.82,147.38,448,189.5,448,256c0,46.19-8.43,80.27-22.43,110.53a8,8,0,0,0,1.59,9l11.92,11.92A8,8,0,0,0,452,385.29C471.6,344.9,480,305,480,256Z"></path>
  </symbol>
  <symbol xmlns="http://www.w3.org/2000/svg" viewBox="0 0 512 512" id="volume-mute-outline">
    <line x1="416" y1="432" x2="64" y2="80"></line>
    <path d="M224,136.92v33.8a4,4,0,0,0,1.17,2.82l24,24a4,4,0,0,0,6.83-2.82V120.57a24.53,24.53,0,0,0-12.67-21.72,23.91,23.91,0,0,0-25.55,1.83,8.27,8.27,0,0,0-.66.51l-31.94,26.15a4,4,0,0,0-.29,5.92l17.05,17.06a4,4,0,0,0,5.37.26Z"></path>
    <path d="M224,375.08l-78.07-63.92A32,32,0,0,0,125.65,304H64V208h50.72a4,4,0,0,0,2.82-6.83l-24-24A4,4,0,0,0,90.72,176H56a24,24,0,0,0-24,24V312a24,24,0,0,0,24,24h69.76l91.36,74.8a8.27,8.27,0,0,0,.66.51A23.93,23.93,0,0,0,243.63,413,24.49,24.49,0,0,0,256,391.45V341.28a4,4,0,0,0-1.17-2.82l-24-24a4,4,0,0,0-6.83,2.82ZM125.82,336Z"></path>
    <path d="M352,256c0-24.56-5.81-47.88-17.75-71.27a16,16,0,0,0-28.5,14.54C315.34,218.06,320,236.62,320,256q0,4-.31,8.13a8,8,0,0,0,2.32,6.25l19.66,19.67a4,4,0,0,0,6.75-2A146.89,146.89,0,0,0,352,256Z"></path>
    <path d="M416,256c0-51.19-13.08-83.89-34.18-120.06a16,16,0,0,0-27.64,16.12C373.07,184.44,384,211.83,384,256c0,23.83-3.29,42.88-9.37,60.65a8,8,0,0,0,1.9,8.26l16.77,16.76a4,4,0,0,0,6.52-1.27C410.09,315.88,416,289.91,416,256Z"></path>
    <path d="M480,256c0-74.26-20.19-121.11-50.51-168.61a16,16,0,1,0-27,17.22C429.82,147.38,448,189.5,448,256c0,47.45-8.9,82.12-23.59,113a4,4,0,0,0,.77,4.55L443,391.39a4,4,0,0,0,6.4-1C470.88,348.22,480,307,480,256Z"></path>
  </symbol>
  <symbol xmlns="http://www.w3.org/2000/svg" viewBox="0 0 512 512" id="volume-medium-sharp">
    <polygon points="157.65 176.1 64 176.1 64 335.9 157.65 335.9 288 440 288 72 157.65 176.1"></polygon>
    <path d="M352,320c9.74-19.41,16-40.81,16-64,0-23.51-6-44.4-16-64"></path>
    <path d="M400,368c19.48-34,32-64,32-112s-12-77.7-32-112"></path>
  </symbol>
  <symbol xmlns="http://www.w3.org/2000/svg" viewBox="0 0 512 512" id="volume-mute-sharp">
    <line x1="416" y1="432" x2="64" y2="80"></line>
    <path d="M352,256c0-24.56-5.81-47.88-17.75-71.27L327,170.47,298.48,185l7.27,14.25C315.34,218.06,320,236.62,320,256a112.91,112.91,0,0,1-.63,11.74l27.32,27.32A148.8,148.8,0,0,0,352,256Z"></path>
    <path d="M416,256c0-51.19-13.08-83.89-34.18-120.06l-8.06-13.82-27.64,16.12,8.06,13.82C373.07,184.44,384,211.83,384,256c0,25.93-3.89,46.21-11,65.33l24.5,24.51C409.19,319.68,416,292.42,416,256Z"></path>
    <path d="M480,256c0-74.26-20.19-121.11-50.51-168.61L420.88,73.9l-27,17.22,8.61,13.49C429.82,147.38,448,189.5,448,256c0,48.76-9.4,84-24.82,115.55l23.7,23.7C470.16,351.39,480,309,480,256Z"></path>
    <polygon points="256 72 182.4 130.78 256 204.37 256 72"></polygon>
    <polygon points="32 176.1 32 335.9 125.65 335.9 256 440 256 339.63 92.47 176.1 32 176.1"></polygon>
  </symbol>
  <symbol xmlns="http://www.w3.org/2000/svg" viewBox="0 0 512 512" id="volume-off">
    <path d="M344,416a23.92,23.92,0,0,1-14.21-4.69c-.23-.16-.44-.33-.66-.51l-91.46-74.9H168a24,24,0,0,1-24-24V200.07a24,24,0,0,1,24-24h69.65l91.46-74.9c.22-.18.43-.35.66-.51A24,24,0,0,1,368,120V392a24,24,0,0,1-24,24Z"></path>
  </symbol>
  <symbol xmlns="http://www.w3.org/2000/svg" viewBox="0 0 512 512" id="volume-off-outline">
    <path d="M237.65,192H168a8,8,0,0,0-8,8V312a8,8,0,0,0,8,8h69.65a16,16,0,0,1,10.14,3.63l91.47,75A8,8,0,0,0,352,392.17V119.83a8,8,0,0,0-12.74-6.44l-91.47,75A16,16,0,0,1,237.65,192Z"></path>
  </symbol>
  <symbol xmlns="http://www.w3.org/2000/svg" viewBox="0 0 512 512" id="volume-off-sharp">
    <polygon points="237.65 176.1 144 176.1 144 335.9 237.65 335.9 368 440 368 72 237.65 176.1"></polygon>
  </symbol>
  <symbol xmlns="http://www.w3.org/2000/svg" viewBox="0 0 512 512" id="pause">
    <path d="M208,432H160a16,16,0,0,1-16-16V96a16,16,0,0,1,16-16h48a16,16,0,0,1,16,16V416A16,16,0,0,1,208,432Z"></path>
    <path d="M352,432H304a16,16,0,0,1-16-16V96a16,16,0,0,1,16-16h48a16,16,0,0,1,16,16V416A16,16,0,0,1,352,432Z"></path>
  </symbol>
  <symbol xmlns="http://www.w3.org/2000/svg" viewBox="0 0 512 512" id="pause-circle">
    <path d="M256,48C141.31,48,48,141.31,48,256s93.31,208,208,208,208-93.31,208-208S370.69,48,256,48ZM224,320a16,16,0,0,1-32,0V192a16,16,0,0,1,32,0Zm96,0a16,16,0,0,1-32,0V192a16,16,0,0,1,32,0Z"></path>
  </symbol>
  <symbol xmlns="http://www.w3.org/2000/svg" viewBox="0 0 512 512" id="pause-circle-outline">
    <path d="M448,256c0-106-86-192-192-192S64,150,64,256s86,192,192,192S448,362,448,256Z"></path>
    <line x1="208" y1="192" x2="208" y2="320"></line>
    <line x1="304" y1="192" x2="304" y2="320"></line>
  </symbol>
  <symbol xmlns="http://www.w3.org/2000/svg" viewBox="0 0 512 512" id="pause-circle-sharp">
    <path d="M256,48C141.31,48,48,141.31,48,256s93.31,208,208,208,208-93.31,208-208S370.69,48,256,48ZM224,336H192V176h32Zm96,0H288V176h32Z"></path>
  </symbol>
  <symbol xmlns="http://www.w3.org/2000/svg" viewBox="0 0 512 512" id="pause-outline">
    <rect x="176" y="96" width="16" height="320"></rect>
    <rect x="320" y="96" width="16" height="320"></rect>
  </symbol>
</svg>

<svg class="icon">
  <use xlink:href="#pause-sharp"></use>
</svg><svg class="icon">
  <use xlink:href="#play"></use>
</svg><svg class="icon">
  <use xlink:href="#play-circle-outline"></use>
</svg><svg class="icon">
  <use xlink:href="#play-circle"></use>
</svg><svg class="icon">
  <use xlink:href="#play-outline"></use>
</svg><svg class="icon">
  <use xlink:href="#play-sharp"></use>
</svg><svg class="icon">
  <use xlink:href="#play-circle-sharp"></use>
</svg><svg class="icon">
  <use xlink:href="#volume-high"></use>
</svg><svg class="icon">
  <use xlink:href="#volume-high-outline"></use>
</svg><svg class="icon">
  <use xlink:href="#volume-high-sharp"></use>
</svg><svg class="icon">
  <use xlink:href="#volume-low"></use>
</svg><svg class="icon">
  <use xlink:href="#volume-low-outline"></use>
</svg><svg class="icon">
  <use xlink:href="#volume-low-sharp"></use>
</svg><svg class="icon">
  <use xlink:href="#volume-medium"></use>
</svg><svg class="icon">
  <use xlink:href="#volume-medium-outline"></use>
</svg><svg class="icon">
  <use xlink:href="#volume-mute"></use>
</svg><svg class="icon">
  <use xlink:href="#volume-mute-outline"></use>
</svg><svg class="icon">
  <use xlink:href="#volume-medium-sharp"></use>
</svg><svg class="icon">
  <use xlink:href="#volume-mute-sharp"></use>
</svg><svg class="icon">
  <use xlink:href="#volume-off"></use>
</svg><svg class="icon">
  <use xlink:href="#volume-off-outline"></use>
</svg><svg class="icon">
  <use xlink:href="#volume-off-sharp"></use>
</svg><svg class="icon">
  <use xlink:href="#pause"></use>
</svg><svg class="icon">
  <use xlink:href="#pause-circle"></use>
</svg><svg class="icon">
  <use xlink:href="#pause-circle-outline"></use>
</svg><svg class="icon">
  <use xlink:href="#pause-circle-sharp"></use>
</svg><svg class="icon">
  <use xlink:href="#pause-outline"></use>
</svg>